<?xml version="1.0" encoding="UTF-8" standalone="no"?>
<!DOCTYPE svg PUBLIC "-//W3C//DTD SVG 1.1//EN"
 "http://www.w3.org/Graphics/SVG/1.1/DTD/svg11.dtd">
<!-- Generated by graphviz version 8.0.5 (20230430.1635)
 -->
<!-- Pages: 1 -->
<svg width="2680pt" height="692pt"
 viewBox="0.00 0.00 2679.50 692.00" xmlns="http://www.w3.org/2000/svg" xmlns:xlink="http://www.w3.org/1999/xlink">
<g id="graph0" class="graph" transform="scale(1 1) rotate(0) translate(4 688)">
<polygon fill="white" stroke="none" points="-4,4 -4,-688 2675.5,-688 2675.5,4 -4,4"/>
<!-- [root] aws_eip.nat1 (expand) -->
<g id="node1" class="node">
<title>[root] aws_eip.nat1 (expand)</title>
<polygon fill="none" stroke="black" points="189.38,-324 102.12,-324 102.12,-288 189.38,-288 189.38,-324"/>
<text text-anchor="middle" x="145.75" y="-300.95" font-family="Times,serif" font-size="14.00">aws_eip.nat1</text>
</g>
<!-- [root] aws_internet_gateway.main (expand) -->
<g id="node11" class="node">
<title>[root] aws_internet_gateway.main (expand)</title>
<polygon fill="none" stroke="black" points="167.5,-252 0,-252 0,-216 167.5,-216 167.5,-252"/>
<text text-anchor="middle" x="83.75" y="-228.95" font-family="Times,serif" font-size="14.00">aws_internet_gateway.main</text>
</g>
<!-- [root] aws_eip.nat1 (expand)&#45;&gt;[root] aws_internet_gateway.main (expand) -->
<g id="edge1" class="edge">
<title>[root] aws_eip.nat1 (expand)&#45;&gt;[root] aws_internet_gateway.main (expand)</title>
<path fill="none" stroke="black" d="M130.42,-287.7C123.07,-279.39 114.11,-269.28 106.02,-260.14"/>
<polygon fill="black" stroke="black" points="109.15,-258.27 99.9,-253.1 103.91,-262.91 109.15,-258.27"/>
</g>
<!-- [root] aws_eip.nat2 (expand) -->
<g id="node2" class="node">
<title>[root] aws_eip.nat2 (expand)</title>
<polygon fill="none" stroke="black" points="294.38,-324 207.12,-324 207.12,-288 294.38,-288 294.38,-324"/>
<text text-anchor="middle" x="250.75" y="-300.95" font-family="Times,serif" font-size="14.00">aws_eip.nat2</text>
</g>
<!-- [root] aws_eip.nat2 (expand)&#45;&gt;[root] aws_internet_gateway.main (expand) -->
<g id="edge2" class="edge">
<title>[root] aws_eip.nat2 (expand)&#45;&gt;[root] aws_internet_gateway.main (expand)</title>
<path fill="none" stroke="black" d="M209.04,-287.52C186.64,-278.13 158.83,-266.47 135.11,-256.53"/>
<polygon fill="black" stroke="black" points="136.79,-253.02 126.22,-252.38 134.09,-259.48 136.79,-253.02"/>
</g>
<!-- [root] aws_eks_cluster.eks (expand) -->
<g id="node3" class="node">
<title>[root] aws_eks_cluster.eks (expand)</title>
<polygon fill="none" stroke="black" points="873.5,-396 748,-396 748,-360 873.5,-360 873.5,-396"/>
<text text-anchor="middle" x="810.75" y="-372.95" font-family="Times,serif" font-size="14.00">aws_eks_cluster.eks</text>
</g>
<!-- [root] aws_iam_role_policy_attachment.amazon_eks_cluster_policy (expand) -->
<g id="node8" class="node">
<title>[root] aws_iam_role_policy_attachment.amazon_eks_cluster_policy (expand)</title>
<polygon fill="none" stroke="black" points="1384.88,-324 1030.62,-324 1030.62,-288 1384.88,-288 1384.88,-324"/>
<text text-anchor="middle" x="1207.75" y="-300.95" font-family="Times,serif" font-size="14.00">aws_iam_role_policy_attachment.amazon_eks_cluster_policy</text>
</g>
<!-- [root] aws_eks_cluster.eks (expand)&#45;&gt;[root] aws_iam_role_policy_attachment.amazon_eks_cluster_policy (expand) -->
<g id="edge3" class="edge">
<title>[root] aws_eks_cluster.eks (expand)&#45;&gt;[root] aws_iam_role_policy_attachment.amazon_eks_cluster_policy (expand)</title>
<path fill="none" stroke="black" d="M873.66,-365.91C933.88,-355.29 1026,-339.05 1098.27,-326.3"/>
<polygon fill="black" stroke="black" points="1098.54,-329.63 1107.78,-324.45 1097.33,-322.74 1098.54,-329.63"/>
</g>
<!-- [root] aws_subnet.private_1 (expand) -->
<g id="node21" class="node">
<title>[root] aws_subnet.private_1 (expand)</title>
<polygon fill="none" stroke="black" points="742.62,-324 608.88,-324 608.88,-288 742.62,-288 742.62,-324"/>
<text text-anchor="middle" x="675.75" y="-300.95" font-family="Times,serif" font-size="14.00">aws_subnet.private_1</text>
</g>
<!-- [root] aws_eks_cluster.eks (expand)&#45;&gt;[root] aws_subnet.private_1 (expand) -->
<g id="edge4" class="edge">
<title>[root] aws_eks_cluster.eks (expand)&#45;&gt;[root] aws_subnet.private_1 (expand)</title>
<path fill="none" stroke="black" d="M777.03,-359.52C759.34,-350.34 737.48,-339.01 718.6,-329.22"/>
<polygon fill="black" stroke="black" points="720.53,-325.76 710.04,-324.26 717.3,-331.97 720.53,-325.76"/>
</g>
<!-- [root] aws_subnet.private_2 (expand) -->
<g id="node22" class="node">
<title>[root] aws_subnet.private_2 (expand)</title>
<polygon fill="none" stroke="black" points="1012.62,-324 878.88,-324 878.88,-288 1012.62,-288 1012.62,-324"/>
<text text-anchor="middle" x="945.75" y="-300.95" font-family="Times,serif" font-size="14.00">aws_subnet.private_2</text>
</g>
<!-- [root] aws_eks_cluster.eks (expand)&#45;&gt;[root] aws_subnet.private_2 (expand) -->
<g id="edge5" class="edge">
<title>[root] aws_eks_cluster.eks (expand)&#45;&gt;[root] aws_subnet.private_2 (expand)</title>
<path fill="none" stroke="black" d="M844.47,-359.52C862.16,-350.34 884.02,-339.01 902.9,-329.22"/>
<polygon fill="black" stroke="black" points="904.2,-331.97 911.46,-324.26 900.97,-325.76 904.2,-331.97"/>
</g>
<!-- [root] aws_subnet.public_1 (expand) -->
<g id="node23" class="node">
<title>[root] aws_subnet.public_1 (expand)</title>
<polygon fill="none" stroke="black" points="442.75,-324 312.75,-324 312.75,-288 442.75,-288 442.75,-324"/>
<text text-anchor="middle" x="377.75" y="-300.95" font-family="Times,serif" font-size="14.00">aws_subnet.public_1</text>
</g>
<!-- [root] aws_eks_cluster.eks (expand)&#45;&gt;[root] aws_subnet.public_1 (expand) -->
<g id="edge6" class="edge">
<title>[root] aws_eks_cluster.eks (expand)&#45;&gt;[root] aws_subnet.public_1 (expand)</title>
<path fill="none" stroke="black" d="M747.59,-369.22C677.94,-360.29 562.34,-344.45 453.56,-324.27"/>
<polygon fill="black" stroke="black" points="454.53,-320.7 444.06,-322.3 453.25,-327.58 454.53,-320.7"/>
</g>
<!-- [root] aws_subnet.public_2 (expand) -->
<g id="node24" class="node">
<title>[root] aws_subnet.public_2 (expand)</title>
<polygon fill="none" stroke="black" points="590.75,-324 460.75,-324 460.75,-288 590.75,-288 590.75,-324"/>
<text text-anchor="middle" x="525.75" y="-300.95" font-family="Times,serif" font-size="14.00">aws_subnet.public_2</text>
</g>
<!-- [root] aws_eks_cluster.eks (expand)&#45;&gt;[root] aws_subnet.public_2 (expand) -->
<g id="edge7" class="edge">
<title>[root] aws_eks_cluster.eks (expand)&#45;&gt;[root] aws_subnet.public_2 (expand)</title>
<path fill="none" stroke="black" d="M747.85,-361.55C704.66,-350.94 647.11,-336.81 601.41,-325.58"/>
<polygon fill="black" stroke="black" points="602.51,-322 591.96,-323.02 600.84,-328.8 602.51,-322"/>
</g>
<!-- [root] var.eks_version -->
<g id="node29" class="node">
<title>[root] var.eks_version</title>
<polygon fill="none" stroke="black" points="855.12,-324 760.38,-324 760.38,-288 861.12,-288 861.12,-318 855.12,-324"/>
<polyline fill="none" stroke="black" points="855.12,-324 855.12,-318"/>
<polyline fill="none" stroke="black" points="861.12,-318 855.12,-318"/>
<text text-anchor="middle" x="810.75" y="-300.95" font-family="Times,serif" font-size="14.00">var.eks_version</text>
</g>
<!-- [root] aws_eks_cluster.eks (expand)&#45;&gt;[root] var.eks_version -->
<g id="edge8" class="edge">
<title>[root] aws_eks_cluster.eks (expand)&#45;&gt;[root] var.eks_version</title>
<path fill="none" stroke="black" d="M810.75,-359.7C810.75,-352.24 810.75,-343.32 810.75,-334.97"/>
<polygon fill="black" stroke="black" points="814.25,-335.1 810.75,-325.1 807.25,-335.1 814.25,-335.1"/>
</g>
<!-- [root] aws_eks_node_group.nodes_general (expand) -->
<g id="node4" class="node">
<title>[root] aws_eks_node_group.nodes_general (expand)</title>
<polygon fill="none" stroke="black" points="1678.12,-468 1463.38,-468 1463.38,-432 1678.12,-432 1678.12,-468"/>
<text text-anchor="middle" x="1570.75" y="-444.95" font-family="Times,serif" font-size="14.00">aws_eks_node_group.nodes_general</text>
</g>
<!-- [root] aws_eks_node_group.nodes_general (expand)&#45;&gt;[root] aws_eks_cluster.eks (expand) -->
<g id="edge9" class="edge">
<title>[root] aws_eks_node_group.nodes_general (expand)&#45;&gt;[root] aws_eks_cluster.eks (expand)</title>
<path fill="none" stroke="black" d="M1463.07,-439.08C1306.18,-424.63 1018.83,-398.17 884.11,-385.76"/>
<polygon fill="black" stroke="black" points="884.79,-382.21 874.51,-384.78 884.15,-389.18 884.79,-382.21"/>
</g>
<!-- [root] aws_iam_role_policy_attachment.amazon_ec2_container_registry_read_only (expand) -->
<g id="node7" class="node">
<title>[root] aws_iam_role_policy_attachment.amazon_ec2_container_registry_read_only (expand)</title>
<polygon fill="none" stroke="black" points="2671.5,-396 2234,-396 2234,-360 2671.5,-360 2671.5,-396"/>
<text text-anchor="middle" x="2452.75" y="-372.95" font-family="Times,serif" font-size="14.00">aws_iam_role_policy_attachment.amazon_ec2_container_registry_read_only</text>
</g>
<!-- [root] aws_eks_node_group.nodes_general (expand)&#45;&gt;[root] aws_iam_role_policy_attachment.amazon_ec2_container_registry_read_only (expand) -->
<g id="edge10" class="edge">
<title>[root] aws_eks_node_group.nodes_general (expand)&#45;&gt;[root] aws_iam_role_policy_attachment.amazon_ec2_container_registry_read_only (expand)</title>
<path fill="none" stroke="black" d="M1678.46,-440.45C1813.05,-429.77 2047.01,-411.2 2222.62,-397.26"/>
<polygon fill="black" stroke="black" points="2222.88,-400.68 2232.57,-396.4 2222.33,-393.7 2222.88,-400.68"/>
</g>
<!-- [root] aws_iam_role_policy_attachment.amazon_eks_cni_policy_general (expand) -->
<g id="node9" class="node">
<title>[root] aws_iam_role_policy_attachment.amazon_eks_cni_policy_general (expand)</title>
<polygon fill="none" stroke="black" points="1761.38,-396 1380.12,-396 1380.12,-360 1761.38,-360 1761.38,-396"/>
<text text-anchor="middle" x="1570.75" y="-372.95" font-family="Times,serif" font-size="14.00">aws_iam_role_policy_attachment.amazon_eks_cni_policy_general</text>
</g>
<!-- [root] aws_eks_node_group.nodes_general (expand)&#45;&gt;[root] aws_iam_role_policy_attachment.amazon_eks_cni_policy_general (expand) -->
<g id="edge11" class="edge">
<title>[root] aws_eks_node_group.nodes_general (expand)&#45;&gt;[root] aws_iam_role_policy_attachment.amazon_eks_cni_policy_general (expand)</title>
<path fill="none" stroke="black" d="M1570.75,-431.7C1570.75,-424.24 1570.75,-415.32 1570.75,-406.97"/>
<polygon fill="black" stroke="black" points="1574.25,-407.1 1570.75,-397.1 1567.25,-407.1 1574.25,-407.1"/>
</g>
<!-- [root] aws_iam_role_policy_attachment.amazon_eks_worker_node_policy_general (expand) -->
<g id="node10" class="node">
<title>[root] aws_iam_role_policy_attachment.amazon_eks_worker_node_policy_general (expand)</title>
<polygon fill="none" stroke="black" points="2215.75,-396 1779.75,-396 1779.75,-360 2215.75,-360 2215.75,-396"/>
<text text-anchor="middle" x="1997.75" y="-372.95" font-family="Times,serif" font-size="14.00">aws_iam_role_policy_attachment.amazon_eks_worker_node_policy_general</text>
</g>
<!-- [root] aws_eks_node_group.nodes_general (expand)&#45;&gt;[root] aws_iam_role_policy_attachment.amazon_eks_worker_node_policy_general (expand) -->
<g id="edge12" class="edge">
<title>[root] aws_eks_node_group.nodes_general (expand)&#45;&gt;[root] aws_iam_role_policy_attachment.amazon_eks_worker_node_policy_general (expand)</title>
<path fill="none" stroke="black" d="M1677.4,-431.52C1739.29,-421.37 1817.32,-408.58 1880.88,-398.16"/>
<polygon fill="black" stroke="black" points="1881.05,-401.51 1890.35,-396.44 1879.92,-394.61 1881.05,-401.51"/>
</g>
<!-- [root] aws_iam_role.eks_cluster (expand) -->
<g id="node5" class="node">
<title>[root] aws_iam_role.eks_cluster (expand)</title>
<polygon fill="none" stroke="black" points="1529.25,-180 1372.25,-180 1372.25,-144 1529.25,-144 1529.25,-180"/>
<text text-anchor="middle" x="1450.75" y="-156.95" font-family="Times,serif" font-size="14.00">aws_iam_role.eks_cluster</text>
</g>
<!-- [root] provider[&quot;registry.terraform.io/hashicorp/aws&quot;] -->
<g id="node26" class="node">
<title>[root] provider[&quot;registry.terraform.io/hashicorp/aws&quot;]</title>
<polygon fill="none" stroke="black" points="1450.75,-108 1186.32,-90 1450.75,-72 1715.18,-90 1450.75,-108"/>
<text text-anchor="middle" x="1450.75" y="-84.95" font-family="Times,serif" font-size="14.00">provider[&quot;registry.terraform.io/hashicorp/aws&quot;]</text>
</g>
<!-- [root] aws_iam_role.eks_cluster (expand)&#45;&gt;[root] provider[&quot;registry.terraform.io/hashicorp/aws&quot;] -->
<g id="edge13" class="edge">
<title>[root] aws_iam_role.eks_cluster (expand)&#45;&gt;[root] provider[&quot;registry.terraform.io/hashicorp/aws&quot;]</title>
<path fill="none" stroke="black" d="M1450.75,-143.7C1450.75,-136.24 1450.75,-127.32 1450.75,-118.97"/>
<polygon fill="black" stroke="black" points="1454.25,-119.1 1450.75,-109.1 1447.25,-119.1 1454.25,-119.1"/>
</g>
<!-- [root] aws_iam_role.nodes_general (expand) -->
<g id="node6" class="node">
<title>[root] aws_iam_role.nodes_general (expand)</title>
<polygon fill="none" stroke="black" points="1899.88,-324 1725.62,-324 1725.62,-288 1899.88,-288 1899.88,-324"/>
<text text-anchor="middle" x="1812.75" y="-300.95" font-family="Times,serif" font-size="14.00">aws_iam_role.nodes_general</text>
</g>
<!-- [root] aws_iam_role.nodes_general (expand)&#45;&gt;[root] provider[&quot;registry.terraform.io/hashicorp/aws&quot;] -->
<g id="edge14" class="edge">
<title>[root] aws_iam_role.nodes_general (expand)&#45;&gt;[root] provider[&quot;registry.terraform.io/hashicorp/aws&quot;]</title>
<path fill="none" stroke="black" d="M1783.43,-287.67C1717.39,-248.63 1557.18,-153.92 1485.93,-111.79"/>
<polygon fill="black" stroke="black" points="1488.27,-108.52 1477.88,-106.45 1484.71,-114.55 1488.27,-108.52"/>
</g>
<!-- [root] aws_iam_role_policy_attachment.amazon_ec2_container_registry_read_only (expand)&#45;&gt;[root] aws_iam_role.nodes_general (expand) -->
<g id="edge15" class="edge">
<title>[root] aws_iam_role_policy_attachment.amazon_ec2_container_registry_read_only (expand)&#45;&gt;[root] aws_iam_role.nodes_general (expand)</title>
<path fill="none" stroke="black" d="M2292.9,-359.52C2173.05,-346.41 2012.82,-328.88 1911.18,-317.77"/>
<polygon fill="black" stroke="black" points="1911.63,-314.18 1901.3,-316.58 1910.86,-321.14 1911.63,-314.18"/>
</g>
<!-- [root] aws_iam_role_policy_attachment.amazon_eks_cluster_policy (expand)&#45;&gt;[root] aws_iam_role.eks_cluster (expand) -->
<g id="edge16" class="edge">
<title>[root] aws_iam_role_policy_attachment.amazon_eks_cluster_policy (expand)&#45;&gt;[root] aws_iam_role.eks_cluster (expand)</title>
<path fill="none" stroke="black" d="M1237.55,-287.59C1281.39,-261.97 1363.32,-214.09 1411.85,-185.73"/>
<polygon fill="black" stroke="black" points="1413.22,-188.4 1420.09,-180.33 1409.69,-182.36 1413.22,-188.4"/>
</g>
<!-- [root] aws_iam_role_policy_attachment.amazon_eks_cni_policy_general (expand)&#45;&gt;[root] aws_iam_role.nodes_general (expand) -->
<g id="edge17" class="edge">
<title>[root] aws_iam_role_policy_attachment.amazon_eks_cni_policy_general (expand)&#45;&gt;[root] aws_iam_role.nodes_general (expand)</title>
<path fill="none" stroke="black" d="M1631.19,-359.52C1664.96,-349.75 1707.2,-337.53 1742.44,-327.34"/>
<polygon fill="black" stroke="black" points="1743.03,-330.52 1751.66,-324.38 1741.08,-323.8 1743.03,-330.52"/>
</g>
<!-- [root] aws_iam_role_policy_attachment.amazon_eks_worker_node_policy_general (expand)&#45;&gt;[root] aws_iam_role.nodes_general (expand) -->
<g id="edge18" class="edge">
<title>[root] aws_iam_role_policy_attachment.amazon_eks_worker_node_policy_general (expand)&#45;&gt;[root] aws_iam_role.nodes_general (expand)</title>
<path fill="none" stroke="black" d="M1951.54,-359.52C1926.51,-350.04 1895.37,-338.26 1868.94,-328.26"/>
<polygon fill="black" stroke="black" points="1870.28,-324.65 1859.69,-324.38 1867.8,-331.19 1870.28,-324.65"/>
</g>
<!-- [root] aws_vpc.main (expand) -->
<g id="node25" class="node">
<title>[root] aws_vpc.main (expand)</title>
<polygon fill="none" stroke="black" points="836.12,-180 741.38,-180 741.38,-144 836.12,-144 836.12,-180"/>
<text text-anchor="middle" x="788.75" y="-156.95" font-family="Times,serif" font-size="14.00">aws_vpc.main</text>
</g>
<!-- [root] aws_internet_gateway.main (expand)&#45;&gt;[root] aws_vpc.main (expand) -->
<g id="edge19" class="edge">
<title>[root] aws_internet_gateway.main (expand)&#45;&gt;[root] aws_vpc.main (expand)</title>
<path fill="none" stroke="black" d="M167.88,-217.93C172.56,-217.24 177.21,-216.59 181.75,-216 382.3,-189.9 621.84,-173.22 730.29,-166.45"/>
<polygon fill="black" stroke="black" points="730.23,-169.9 739.99,-165.79 729.79,-162.91 730.23,-169.9"/>
</g>
<!-- [root] aws_nat_gateway.gw1 (expand) -->
<g id="node12" class="node">
<title>[root] aws_nat_gateway.gw1 (expand)</title>
<polygon fill="none" stroke="black" points="406.88,-396 268.62,-396 268.62,-360 406.88,-360 406.88,-396"/>
<text text-anchor="middle" x="337.75" y="-372.95" font-family="Times,serif" font-size="14.00">aws_nat_gateway.gw1</text>
</g>
<!-- [root] aws_nat_gateway.gw1 (expand)&#45;&gt;[root] aws_eip.nat1 (expand) -->
<g id="edge20" class="edge">
<title>[root] aws_nat_gateway.gw1 (expand)&#45;&gt;[root] aws_eip.nat1 (expand)</title>
<path fill="none" stroke="black" d="M289.8,-359.52C262.49,-349.56 228.2,-337.06 199.93,-326.75"/>
<polygon fill="black" stroke="black" points="201.4,-323.2 190.81,-323.06 199.01,-329.78 201.4,-323.2"/>
</g>
<!-- [root] aws_nat_gateway.gw1 (expand)&#45;&gt;[root] aws_subnet.public_1 (expand) -->
<g id="edge21" class="edge">
<title>[root] aws_nat_gateway.gw1 (expand)&#45;&gt;[root] aws_subnet.public_1 (expand)</title>
<path fill="none" stroke="black" d="M347.64,-359.7C352.14,-351.81 357.58,-342.3 362.58,-333.55"/>
<polygon fill="black" stroke="black" points="366.05,-335.52 367.98,-325.1 359.98,-332.05 366.05,-335.52"/>
</g>
<!-- [root] aws_nat_gateway.gw2 (expand) -->
<g id="node13" class="node">
<title>[root] aws_nat_gateway.gw2 (expand)</title>
<polygon fill="none" stroke="black" points="569.88,-396 431.62,-396 431.62,-360 569.88,-360 569.88,-396"/>
<text text-anchor="middle" x="500.75" y="-372.95" font-family="Times,serif" font-size="14.00">aws_nat_gateway.gw2</text>
</g>
<!-- [root] aws_nat_gateway.gw2 (expand)&#45;&gt;[root] aws_eip.nat2 (expand) -->
<g id="edge22" class="edge">
<title>[root] aws_nat_gateway.gw2 (expand)&#45;&gt;[root] aws_eip.nat2 (expand)</title>
<path fill="none" stroke="black" d="M432.6,-359.52C397.09,-350.21 352.74,-338.28 304.92,-324.28"/>
<polygon fill="black" stroke="black" points="306.24,-320.73 295.66,-321.26 304.27,-327.44 306.24,-320.73"/>
</g>
<!-- [root] aws_nat_gateway.gw2 (expand)&#45;&gt;[root] aws_subnet.public_2 (expand) -->
<g id="edge23" class="edge">
<title>[root] aws_nat_gateway.gw2 (expand)&#45;&gt;[root] aws_subnet.public_2 (expand)</title>
<path fill="none" stroke="black" d="M506.93,-359.7C509.65,-352.07 512.92,-342.92 515.97,-334.4"/>
<polygon fill="black" stroke="black" points="519.57,-335.7 519.64,-325.1 512.98,-333.34 519.57,-335.7"/>
</g>
<!-- [root] aws_route_table.private1 (expand) -->
<g id="node14" class="node">
<title>[root] aws_route_table.private1 (expand)</title>
<polygon fill="none" stroke="black" points="406,-468 253.5,-468 253.5,-432 406,-432 406,-468"/>
<text text-anchor="middle" x="329.75" y="-444.95" font-family="Times,serif" font-size="14.00">aws_route_table.private1</text>
</g>
<!-- [root] aws_route_table.private1 (expand)&#45;&gt;[root] aws_nat_gateway.gw1 (expand) -->
<g id="edge24" class="edge">
<title>[root] aws_route_table.private1 (expand)&#45;&gt;[root] aws_nat_gateway.gw1 (expand)</title>
<path fill="none" stroke="black" d="M331.73,-431.7C332.58,-424.24 333.6,-415.32 334.55,-406.97"/>
<polygon fill="black" stroke="black" points="338.14,-407.44 335.8,-397.1 331.18,-406.64 338.14,-407.44"/>
</g>
<!-- [root] var.route_destination -->
<g id="node35" class="node">
<title>[root] var.route_destination</title>
<polygon fill="none" stroke="black" points="244.75,-396 120.75,-396 120.75,-360 250.75,-360 250.75,-390 244.75,-396"/>
<polyline fill="none" stroke="black" points="244.75,-396 244.75,-390"/>
<polyline fill="none" stroke="black" points="250.75,-390 244.75,-390"/>
<text text-anchor="middle" x="185.75" y="-372.95" font-family="Times,serif" font-size="14.00">var.route_destination</text>
</g>
<!-- [root] aws_route_table.private1 (expand)&#45;&gt;[root] var.route_destination -->
<g id="edge25" class="edge">
<title>[root] aws_route_table.private1 (expand)&#45;&gt;[root] var.route_destination</title>
<path fill="none" stroke="black" d="M293.78,-431.52C274.74,-422.26 251.17,-410.8 230.9,-400.95"/>
<polygon fill="black" stroke="black" points="232.78,-397.48 222.26,-396.26 229.72,-403.78 232.78,-397.48"/>
</g>
<!-- [root] aws_route_table.private2 (expand) -->
<g id="node15" class="node">
<title>[root] aws_route_table.private2 (expand)</title>
<polygon fill="none" stroke="black" points="577,-468 424.5,-468 424.5,-432 577,-432 577,-468"/>
<text text-anchor="middle" x="500.75" y="-444.95" font-family="Times,serif" font-size="14.00">aws_route_table.private2</text>
</g>
<!-- [root] aws_route_table.private2 (expand)&#45;&gt;[root] aws_nat_gateway.gw2 (expand) -->
<g id="edge26" class="edge">
<title>[root] aws_route_table.private2 (expand)&#45;&gt;[root] aws_nat_gateway.gw2 (expand)</title>
<path fill="none" stroke="black" d="M500.75,-431.7C500.75,-424.24 500.75,-415.32 500.75,-406.97"/>
<polygon fill="black" stroke="black" points="504.25,-407.1 500.75,-397.1 497.25,-407.1 504.25,-407.1"/>
</g>
<!-- [root] aws_route_table.private2 (expand)&#45;&gt;[root] var.route_destination -->
<g id="edge27" class="edge">
<title>[root] aws_route_table.private2 (expand)&#45;&gt;[root] var.route_destination</title>
<path fill="none" stroke="black" d="M424.19,-432.35C379.39,-422.57 321.46,-409.84 261.53,-396.39"/>
<polygon fill="black" stroke="black" points="262.64,-392.83 252.11,-394.05 261.1,-399.66 262.64,-392.83"/>
</g>
<!-- [root] aws_route_table.public (expand) -->
<g id="node16" class="node">
<title>[root] aws_route_table.public (expand)</title>
<polygon fill="none" stroke="black" points="235.75,-468 93.75,-468 93.75,-432 235.75,-432 235.75,-468"/>
<text text-anchor="middle" x="164.75" y="-444.95" font-family="Times,serif" font-size="14.00">aws_route_table.public</text>
</g>
<!-- [root] aws_route_table.public (expand)&#45;&gt;[root] aws_internet_gateway.main (expand) -->
<g id="edge28" class="edge">
<title>[root] aws_route_table.public (expand)&#45;&gt;[root] aws_internet_gateway.main (expand)</title>
<path fill="none" stroke="black" d="M142.62,-431.72C131.87,-422.24 119.6,-409.65 111.75,-396 87.72,-354.2 83.26,-296.93 82.97,-263.17"/>
<polygon fill="black" stroke="black" points="86.47,-263.28 83.02,-253.27 79.47,-263.25 86.47,-263.28"/>
</g>
<!-- [root] aws_route_table.public (expand)&#45;&gt;[root] var.route_destination -->
<g id="edge29" class="edge">
<title>[root] aws_route_table.public (expand)&#45;&gt;[root] var.route_destination</title>
<path fill="none" stroke="black" d="M169.94,-431.7C172.23,-424.07 174.98,-414.92 177.53,-406.4"/>
<polygon fill="black" stroke="black" points="181.1,-407.69 180.62,-397.1 174.39,-405.68 181.1,-407.69"/>
</g>
<!-- [root] aws_route_table_association.private1 (expand) -->
<g id="node17" class="node">
<title>[root] aws_route_table_association.private1 (expand)</title>
<polygon fill="none" stroke="black" points="785.38,-540 566.12,-540 566.12,-504 785.38,-504 785.38,-540"/>
<text text-anchor="middle" x="675.75" y="-516.95" font-family="Times,serif" font-size="14.00">aws_route_table_association.private1</text>
</g>
<!-- [root] aws_route_table_association.private1 (expand)&#45;&gt;[root] aws_route_table.private1 (expand) -->
<g id="edge30" class="edge">
<title>[root] aws_route_table_association.private1 (expand)&#45;&gt;[root] aws_route_table.private1 (expand)</title>
<path fill="none" stroke="black" d="M589.33,-503.52C536.71,-492.87 469.69,-479.31 416.93,-468.64"/>
<polygon fill="black" stroke="black" points="417.74,-465.03 407.24,-466.48 416.35,-471.89 417.74,-465.03"/>
</g>
<!-- [root] aws_route_table_association.private1 (expand)&#45;&gt;[root] aws_subnet.private_1 (expand) -->
<g id="edge31" class="edge">
<title>[root] aws_route_table_association.private1 (expand)&#45;&gt;[root] aws_subnet.private_1 (expand)</title>
<path fill="none" stroke="black" d="M675.75,-503.85C675.75,-466.99 675.75,-379.92 675.75,-334.96"/>
<polygon fill="black" stroke="black" points="679.25,-335.23 675.75,-325.23 672.25,-335.23 679.25,-335.23"/>
</g>
<!-- [root] aws_route_table_association.private2 (expand) -->
<g id="node18" class="node">
<title>[root] aws_route_table_association.private2 (expand)</title>
<polygon fill="none" stroke="black" points="1022.38,-540 803.12,-540 803.12,-504 1022.38,-504 1022.38,-540"/>
<text text-anchor="middle" x="912.75" y="-516.95" font-family="Times,serif" font-size="14.00">aws_route_table_association.private2</text>
</g>
<!-- [root] aws_route_table_association.private2 (expand)&#45;&gt;[root] aws_route_table.private2 (expand) -->
<g id="edge32" class="edge">
<title>[root] aws_route_table_association.private2 (expand)&#45;&gt;[root] aws_route_table.private2 (expand)</title>
<path fill="none" stroke="black" d="M809.85,-503.52C741.55,-491.91 652.88,-476.85 588.04,-465.83"/>
<polygon fill="black" stroke="black" points="588.88,-462.25 578.44,-464.03 587.71,-469.16 588.88,-462.25"/>
</g>
<!-- [root] aws_route_table_association.private2 (expand)&#45;&gt;[root] aws_subnet.private_2 (expand) -->
<g id="edge33" class="edge">
<title>[root] aws_route_table_association.private2 (expand)&#45;&gt;[root] aws_subnet.private_2 (expand)</title>
<path fill="none" stroke="black" d="M915.39,-503.85C921.08,-466.99 934.51,-379.92 941.44,-334.96"/>
<polygon fill="black" stroke="black" points="945.03,-335.65 943.09,-325.23 938.11,-334.58 945.03,-335.65"/>
</g>
<!-- [root] aws_route_table_association.public1 (expand) -->
<g id="node19" class="node">
<title>[root] aws_route_table_association.public1 (expand)</title>
<polygon fill="none" stroke="black" points="272.5,-540 57,-540 57,-504 272.5,-504 272.5,-540"/>
<text text-anchor="middle" x="164.75" y="-516.95" font-family="Times,serif" font-size="14.00">aws_route_table_association.public1</text>
</g>
<!-- [root] aws_route_table_association.public1 (expand)&#45;&gt;[root] aws_route_table.public (expand) -->
<g id="edge34" class="edge">
<title>[root] aws_route_table_association.public1 (expand)&#45;&gt;[root] aws_route_table.public (expand)</title>
<path fill="none" stroke="black" d="M164.75,-503.7C164.75,-496.24 164.75,-487.32 164.75,-478.97"/>
<polygon fill="black" stroke="black" points="168.25,-479.1 164.75,-469.1 161.25,-479.1 168.25,-479.1"/>
</g>
<!-- [root] aws_route_table_association.public1 (expand)&#45;&gt;[root] aws_subnet.public_1 (expand) -->
<g id="edge35" class="edge">
<title>[root] aws_route_table_association.public1 (expand)&#45;&gt;[root] aws_subnet.public_1 (expand)</title>
<path fill="none" stroke="black" d="M122.72,-503.52C107.97,-495.1 93.03,-483.41 84.75,-468 61.34,-424.41 73.87,-391.82 111.75,-360 175.63,-306.34 215.55,-338.93 301.67,-324.2"/>
<polygon fill="black" stroke="black" points="302.24,-327.47 311.41,-322.16 300.93,-320.59 302.24,-327.47"/>
</g>
<!-- [root] aws_route_table_association.public2 (expand) -->
<g id="node20" class="node">
<title>[root] aws_route_table_association.public2 (expand)</title>
<polygon fill="none" stroke="black" points="548.5,-540 333,-540 333,-504 548.5,-504 548.5,-540"/>
<text text-anchor="middle" x="440.75" y="-516.95" font-family="Times,serif" font-size="14.00">aws_route_table_association.public2</text>
</g>
<!-- [root] aws_route_table_association.public2 (expand)&#45;&gt;[root] aws_route_table.public (expand) -->
<g id="edge36" class="edge">
<title>[root] aws_route_table_association.public2 (expand)&#45;&gt;[root] aws_route_table.public (expand)</title>
<path fill="none" stroke="black" d="M371.82,-503.52C332.97,-493.67 284.3,-481.32 243.9,-471.07"/>
<polygon fill="black" stroke="black" points="244.84,-467.45 234.28,-468.38 243.12,-474.23 244.84,-467.45"/>
</g>
<!-- [root] aws_route_table_association.public2 (expand)&#45;&gt;[root] aws_subnet.public_2 (expand) -->
<g id="edge37" class="edge">
<title>[root] aws_route_table_association.public2 (expand)&#45;&gt;[root] aws_subnet.public_2 (expand)</title>
<path fill="none" stroke="black" d="M538.8,-503.53C557.25,-495.69 574.31,-484.36 585.75,-468 595.87,-453.52 588.21,-380.04 578.75,-360 573.78,-349.48 565.82,-339.84 557.56,-331.75"/>
<polygon fill="black" stroke="black" points="560.37,-329.67 550.63,-325.49 555.64,-334.83 560.37,-329.67"/>
</g>
<!-- [root] aws_subnet.private_1 (expand)&#45;&gt;[root] aws_vpc.main (expand) -->
<g id="edge38" class="edge">
<title>[root] aws_subnet.private_1 (expand)&#45;&gt;[root] aws_vpc.main (expand)</title>
<path fill="none" stroke="black" d="M723.61,-287.74C740.53,-279.39 758.21,-267.7 769.75,-252 782.61,-234.5 787.14,-210.13 788.58,-191.32"/>
<polygon fill="black" stroke="black" points="792.12,-191.59 789.12,-181.43 785.12,-191.24 792.12,-191.59"/>
</g>
<!-- [root] var.availability_zones -->
<g id="node28" class="node">
<title>[root] var.availability_zones</title>
<polygon fill="none" stroke="black" points="755,-252 626.5,-252 626.5,-216 761,-216 761,-246 755,-252"/>
<polyline fill="none" stroke="black" points="755,-252 755,-246"/>
<polyline fill="none" stroke="black" points="761,-246 755,-246"/>
<text text-anchor="middle" x="693.75" y="-228.95" font-family="Times,serif" font-size="14.00">var.availability_zones</text>
</g>
<!-- [root] aws_subnet.private_1 (expand)&#45;&gt;[root] var.availability_zones -->
<g id="edge39" class="edge">
<title>[root] aws_subnet.private_1 (expand)&#45;&gt;[root] var.availability_zones</title>
<path fill="none" stroke="black" d="M680.2,-287.7C682.14,-280.15 684.46,-271.12 686.63,-262.68"/>
<polygon fill="black" stroke="black" points="690.25,-263.66 689.35,-253.1 683.47,-261.92 690.25,-263.66"/>
</g>
<!-- [root] var.private_1_subnet_CIDR -->
<g id="node30" class="node">
<title>[root] var.private_1_subnet_CIDR</title>
<polygon fill="none" stroke="black" points="978.88,-252 816.62,-252 816.62,-216 984.88,-216 984.88,-246 978.88,-252"/>
<polyline fill="none" stroke="black" points="978.88,-252 978.88,-246"/>
<polyline fill="none" stroke="black" points="984.88,-246 978.88,-246"/>
<text text-anchor="middle" x="900.75" y="-228.95" font-family="Times,serif" font-size="14.00">var.private_1_subnet_CIDR</text>
</g>
<!-- [root] aws_subnet.private_1 (expand)&#45;&gt;[root] var.private_1_subnet_CIDR -->
<g id="edge40" class="edge">
<title>[root] aws_subnet.private_1 (expand)&#45;&gt;[root] var.private_1_subnet_CIDR</title>
<path fill="none" stroke="black" d="M731.95,-287.52C763.07,-277.83 801.94,-265.74 834.54,-255.6"/>
<polygon fill="black" stroke="black" points="835.37,-258.69 843.88,-252.38 833.29,-252.01 835.37,-258.69"/>
</g>
<!-- [root] aws_subnet.private_2 (expand)&#45;&gt;[root] aws_vpc.main (expand) -->
<g id="edge41" class="edge">
<title>[root] aws_subnet.private_2 (expand)&#45;&gt;[root] aws_vpc.main (expand)</title>
<path fill="none" stroke="black" d="M966.72,-287.6C986.72,-268.89 1011.38,-238.76 993.75,-216 975.91,-192.95 901.51,-178.12 847.47,-170.17"/>
<polygon fill="black" stroke="black" points="848.01,-166.57 837.61,-168.63 847.02,-173.5 848.01,-166.57"/>
</g>
<!-- [root] aws_subnet.private_2 (expand)&#45;&gt;[root] var.availability_zones -->
<g id="edge42" class="edge">
<title>[root] aws_subnet.private_2 (expand)&#45;&gt;[root] var.availability_zones</title>
<path fill="none" stroke="black" d="M882.81,-287.52C847.5,-277.71 803.28,-265.43 766.49,-255.21"/>
<polygon fill="black" stroke="black" points="767.9,-251.69 757.32,-252.38 766.02,-258.43 767.9,-251.69"/>
</g>
<!-- [root] var.private_2_subnet_CIDR -->
<g id="node31" class="node">
<title>[root] var.private_2_subnet_CIDR</title>
<polygon fill="none" stroke="black" points="1202.88,-252 1040.62,-252 1040.62,-216 1208.88,-216 1208.88,-246 1202.88,-252"/>
<polyline fill="none" stroke="black" points="1202.88,-252 1202.88,-246"/>
<polyline fill="none" stroke="black" points="1208.88,-246 1202.88,-246"/>
<text text-anchor="middle" x="1124.75" y="-228.95" font-family="Times,serif" font-size="14.00">var.private_2_subnet_CIDR</text>
</g>
<!-- [root] aws_subnet.private_2 (expand)&#45;&gt;[root] var.private_2_subnet_CIDR -->
<g id="edge43" class="edge">
<title>[root] aws_subnet.private_2 (expand)&#45;&gt;[root] var.private_2_subnet_CIDR</title>
<path fill="none" stroke="black" d="M990.46,-287.52C1014.68,-278.04 1044.81,-266.26 1070.38,-256.26"/>
<polygon fill="black" stroke="black" points="1071.26,-259.28 1079.3,-252.38 1068.71,-252.76 1071.26,-259.28"/>
</g>
<!-- [root] aws_subnet.public_1 (expand)&#45;&gt;[root] aws_vpc.main (expand) -->
<g id="edge44" class="edge">
<title>[root] aws_subnet.public_1 (expand)&#45;&gt;[root] aws_vpc.main (expand)</title>
<path fill="none" stroke="black" d="M312.36,-287.66C269.74,-275.7 220.91,-260.49 214.75,-252 205.35,-239.05 203.97,-227.82 214.75,-216 249.01,-178.43 590.68,-167.11 730.04,-164.04"/>
<polygon fill="black" stroke="black" points="729.98,-167.52 739.9,-163.81 729.83,-160.52 729.98,-167.52"/>
</g>
<!-- [root] aws_subnet.public_1 (expand)&#45;&gt;[root] var.availability_zones -->
<g id="edge45" class="edge">
<title>[root] aws_subnet.public_1 (expand)&#45;&gt;[root] var.availability_zones</title>
<path fill="none" stroke="black" d="M443.11,-289.94C446.03,-289.28 448.92,-288.63 451.75,-288 521.85,-272.3 541.75,-268.42 615.83,-252.2"/>
<polygon fill="black" stroke="black" points="616.13,-255.5 625.15,-249.94 614.63,-248.66 616.13,-255.5"/>
</g>
<!-- [root] var.public_1_subnet_CIDR -->
<g id="node32" class="node">
<title>[root] var.public_1_subnet_CIDR</title>
<polygon fill="none" stroke="black" points="382,-252 223.5,-252 223.5,-216 388,-216 388,-246 382,-252"/>
<polyline fill="none" stroke="black" points="382,-252 382,-246"/>
<polyline fill="none" stroke="black" points="388,-246 382,-246"/>
<text text-anchor="middle" x="305.75" y="-228.95" font-family="Times,serif" font-size="14.00">var.public_1_subnet_CIDR</text>
</g>
<!-- [root] aws_subnet.public_1 (expand)&#45;&gt;[root] var.public_1_subnet_CIDR -->
<g id="edge46" class="edge">
<title>[root] aws_subnet.public_1 (expand)&#45;&gt;[root] var.public_1_subnet_CIDR</title>
<path fill="none" stroke="black" d="M359.95,-287.7C351.3,-279.28 340.74,-269.02 331.25,-259.79"/>
<polygon fill="black" stroke="black" points="334.2,-257.81 324.59,-253.35 329.32,-262.83 334.2,-257.81"/>
</g>
<!-- [root] aws_subnet.public_2 (expand)&#45;&gt;[root] aws_vpc.main (expand) -->
<g id="edge47" class="edge">
<title>[root] aws_subnet.public_2 (expand)&#45;&gt;[root] aws_vpc.main (expand)</title>
<path fill="none" stroke="black" d="M475.71,-287.6C459.74,-279.41 443.86,-267.85 434.75,-252 426.78,-238.13 424.31,-228.12 434.75,-216 472.18,-172.55 639.62,-164.2 730.17,-162.93"/>
<polygon fill="black" stroke="black" points="730.12,-166.42 740.08,-162.8 730.04,-159.42 730.12,-166.42"/>
</g>
<!-- [root] aws_subnet.public_2 (expand)&#45;&gt;[root] var.availability_zones -->
<g id="edge48" class="edge">
<title>[root] aws_subnet.public_2 (expand)&#45;&gt;[root] var.availability_zones</title>
<path fill="none" stroke="black" d="M567.71,-287.52C590.25,-278.13 618.22,-266.47 642.09,-256.53"/>
<polygon fill="black" stroke="black" points="643.15,-259.46 651.03,-252.38 640.46,-253 643.15,-259.46"/>
</g>
<!-- [root] var.public_2_subnet_CIDR -->
<g id="node33" class="node">
<title>[root] var.public_2_subnet_CIDR</title>
<polygon fill="none" stroke="black" points="602,-252 443.5,-252 443.5,-216 608,-216 608,-246 602,-252"/>
<polyline fill="none" stroke="black" points="602,-252 602,-246"/>
<polyline fill="none" stroke="black" points="608,-246 602,-246"/>
<text text-anchor="middle" x="525.75" y="-228.95" font-family="Times,serif" font-size="14.00">var.public_2_subnet_CIDR</text>
</g>
<!-- [root] aws_subnet.public_2 (expand)&#45;&gt;[root] var.public_2_subnet_CIDR -->
<g id="edge49" class="edge">
<title>[root] aws_subnet.public_2 (expand)&#45;&gt;[root] var.public_2_subnet_CIDR</title>
<path fill="none" stroke="black" d="M525.75,-287.7C525.75,-280.24 525.75,-271.32 525.75,-262.97"/>
<polygon fill="black" stroke="black" points="529.25,-263.1 525.75,-253.1 522.25,-263.1 529.25,-263.1"/>
</g>
<!-- [root] aws_vpc.main (expand)&#45;&gt;[root] provider[&quot;registry.terraform.io/hashicorp/aws&quot;] -->
<g id="edge50" class="edge">
<title>[root] aws_vpc.main (expand)&#45;&gt;[root] provider[&quot;registry.terraform.io/hashicorp/aws&quot;]</title>
<path fill="none" stroke="black" d="M836.36,-155.97C940.84,-144.92 1192.59,-118.3 1339.36,-102.78"/>
<polygon fill="black" stroke="black" points="1339.6,-106.17 1349.18,-101.63 1338.87,-99.21 1339.6,-106.17"/>
</g>
<!-- [root] var.VPC_CIDR_block -->
<g id="node27" class="node">
<title>[root] var.VPC_CIDR_block</title>
<polygon fill="none" stroke="black" points="851.88,-108 719.62,-108 719.62,-72 857.88,-72 857.88,-102 851.88,-108"/>
<polyline fill="none" stroke="black" points="851.88,-108 851.88,-102"/>
<polyline fill="none" stroke="black" points="857.88,-102 851.88,-102"/>
<text text-anchor="middle" x="788.75" y="-84.95" font-family="Times,serif" font-size="14.00">var.VPC_CIDR_block</text>
</g>
<!-- [root] aws_vpc.main (expand)&#45;&gt;[root] var.VPC_CIDR_block -->
<g id="edge51" class="edge">
<title>[root] aws_vpc.main (expand)&#45;&gt;[root] var.VPC_CIDR_block</title>
<path fill="none" stroke="black" d="M788.75,-143.7C788.75,-136.24 788.75,-127.32 788.75,-118.97"/>
<polygon fill="black" stroke="black" points="792.25,-119.1 788.75,-109.1 785.25,-119.1 792.25,-119.1"/>
</g>
<!-- [root] var.region -->
<g id="node34" class="node">
<title>[root] var.region</title>
<polygon fill="none" stroke="black" points="1480.12,-36 1415.38,-36 1415.38,0 1486.12,0 1486.12,-30 1480.12,-36"/>
<polyline fill="none" stroke="black" points="1480.12,-36 1480.12,-30"/>
<polyline fill="none" stroke="black" points="1486.12,-30 1480.12,-30"/>
<text text-anchor="middle" x="1450.75" y="-12.95" font-family="Times,serif" font-size="14.00">var.region</text>
</g>
<!-- [root] provider[&quot;registry.terraform.io/hashicorp/aws&quot;]&#45;&gt;[root] var.region -->
<g id="edge58" class="edge">
<title>[root] provider[&quot;registry.terraform.io/hashicorp/aws&quot;]&#45;&gt;[root] var.region</title>
<path fill="none" stroke="black" d="M1450.75,-71.7C1450.75,-64.24 1450.75,-55.32 1450.75,-46.97"/>
<polygon fill="black" stroke="black" points="1454.25,-47.1 1450.75,-37.1 1447.25,-47.1 1454.25,-47.1"/>
</g>
<!-- [root] output.vpc_id (expand) -->
<g id="node36" class="node">
<title>[root] output.vpc_id (expand)</title>
<ellipse fill="none" stroke="black" cx="1230.75" cy="-594" rx="120.96" ry="18"/>
<text text-anchor="middle" x="1230.75" y="-588.95" font-family="Times,serif" font-size="14.00">[root] output.vpc_id (expand)</text>
</g>
<!-- [root] output.vpc_id (expand)&#45;&gt;[root] aws_vpc.main (expand) -->
<g id="edge52" class="edge">
<title>[root] output.vpc_id (expand)&#45;&gt;[root] aws_vpc.main (expand)</title>
<path fill="none" stroke="black" d="M1240.95,-575.66C1263.84,-536.83 1321.16,-440.03 1370.75,-360 1388.45,-331.45 1412.47,-315.89 1393.75,-288 1333,-197.51 987.37,-171.91 847.5,-165.21"/>
<polygon fill="black" stroke="black" points="847.75,-161.67 837.6,-164.7 847.42,-168.66 847.75,-161.67"/>
</g>
<!-- [root] provider[&quot;registry.terraform.io/hashicorp/aws&quot;] (close) -->
<g id="node37" class="node">
<title>[root] provider[&quot;registry.terraform.io/hashicorp/aws&quot;] (close)</title>
<ellipse fill="none" stroke="black" cx="793.75" cy="-594" rx="238.16" ry="18"/>
<text text-anchor="middle" x="793.75" y="-588.95" font-family="Times,serif" font-size="14.00">[root] provider[&quot;registry.terraform.io/hashicorp/aws&quot;] (close)</text>
</g>
<!-- [root] provider[&quot;registry.terraform.io/hashicorp/aws&quot;] (close)&#45;&gt;[root] aws_eks_node_group.nodes_general (expand) -->
<g id="edge53" class="edge">
<title>[root] provider[&quot;registry.terraform.io/hashicorp/aws&quot;] (close)&#45;&gt;[root] aws_eks_node_group.nodes_general (expand)</title>
<path fill="none" stroke="black" d="M882.13,-576.85C1025.99,-550.56 1310.24,-498.61 1464.74,-470.37"/>
<polygon fill="black" stroke="black" points="1464.98,-473.71 1474.19,-468.46 1463.72,-466.82 1464.98,-473.71"/>
</g>
<!-- [root] provider[&quot;registry.terraform.io/hashicorp/aws&quot;] (close)&#45;&gt;[root] aws_route_table_association.private1 (expand) -->
<g id="edge54" class="edge">
<title>[root] provider[&quot;registry.terraform.io/hashicorp/aws&quot;] (close)&#45;&gt;[root] aws_route_table_association.private1 (expand)</title>
<path fill="none" stroke="black" d="M764.58,-575.7C749.41,-566.69 730.66,-555.57 714.3,-545.87"/>
<polygon fill="black" stroke="black" points="716.38,-542.44 705.99,-540.35 712.81,-548.46 716.38,-542.44"/>
</g>
<!-- [root] provider[&quot;registry.terraform.io/hashicorp/aws&quot;] (close)&#45;&gt;[root] aws_route_table_association.private2 (expand) -->
<g id="edge55" class="edge">
<title>[root] provider[&quot;registry.terraform.io/hashicorp/aws&quot;] (close)&#45;&gt;[root] aws_route_table_association.private2 (expand)</title>
<path fill="none" stroke="black" d="M823.17,-575.7C838.47,-566.69 857.38,-555.57 873.87,-545.87"/>
<polygon fill="black" stroke="black" points="875.42,-548.43 882.26,-540.35 871.87,-542.4 875.42,-548.43"/>
</g>
<!-- [root] provider[&quot;registry.terraform.io/hashicorp/aws&quot;] (close)&#45;&gt;[root] aws_route_table_association.public1 (expand) -->
<g id="edge56" class="edge">
<title>[root] provider[&quot;registry.terraform.io/hashicorp/aws&quot;] (close)&#45;&gt;[root] aws_route_table_association.public1 (expand)</title>
<path fill="none" stroke="black" d="M663.8,-578.54C551.96,-566.09 391.94,-548.28 283.48,-536.21"/>
<polygon fill="black" stroke="black" points="284.15,-532.65 273.82,-535.03 283.37,-539.61 284.15,-532.65"/>
</g>
<!-- [root] provider[&quot;registry.terraform.io/hashicorp/aws&quot;] (close)&#45;&gt;[root] aws_route_table_association.public2 (expand) -->
<g id="edge57" class="edge">
<title>[root] provider[&quot;registry.terraform.io/hashicorp/aws&quot;] (close)&#45;&gt;[root] aws_route_table_association.public2 (expand)</title>
<path fill="none" stroke="black" d="M711.43,-576.68C660.06,-566.49 593.62,-553.31 539.43,-542.57"/>
<polygon fill="black" stroke="black" points="540.25,-538.96 529.76,-540.45 538.89,-545.83 540.25,-538.96"/>
</g>
<!-- [root] root -->
<g id="node38" class="node">
<title>[root] root</title>
<ellipse fill="none" stroke="black" cx="981.75" cy="-666" rx="49.3" ry="18"/>
<text text-anchor="middle" x="981.75" y="-660.95" font-family="Times,serif" font-size="14.00">[root] root</text>
</g>
<!-- [root] root&#45;&gt;[root] output.vpc_id (expand) -->
<g id="edge59" class="edge">
<title>[root] root&#45;&gt;[root] output.vpc_id (expand)</title>
<path fill="none" stroke="black" d="M1020.11,-654.22C1058.71,-643.36 1118.98,-626.42 1165.18,-613.43"/>
<polygon fill="black" stroke="black" points="1166.02,-616.55 1174.7,-610.48 1164.13,-609.81 1166.02,-616.55"/>
</g>
<!-- [root] root&#45;&gt;[root] provider[&quot;registry.terraform.io/hashicorp/aws&quot;] (close) -->
<g id="edge60" class="edge">
<title>[root] root&#45;&gt;[root] provider[&quot;registry.terraform.io/hashicorp/aws&quot;] (close)</title>
<path fill="none" stroke="black" d="M948.14,-652.49C920.88,-642.34 881.88,-627.81 849.9,-615.91"/>
<polygon fill="black" stroke="black" points="851.37,-612.35 840.78,-612.14 848.93,-618.91 851.37,-612.35"/>
</g>
</g>
</svg>
