<?xml version="1.0" encoding="UTF-8" standalone="no"?>
<!DOCTYPE svg PUBLIC "-//W3C//DTD SVG 1.1//EN"
 "http://www.w3.org/Graphics/SVG/1.1/DTD/svg11.dtd">
<!-- Generated by graphviz version 8.0.5 (20230430.1635)
 -->
<!-- Pages: 1 -->
<svg width="2617pt" height="620pt"
 viewBox="0.00 0.00 2617.38 620.00" xmlns="http://www.w3.org/2000/svg" xmlns:xlink="http://www.w3.org/1999/xlink">
<g id="graph0" class="graph" transform="scale(1 1) rotate(0) translate(4 616)">
<polygon fill="white" stroke="none" points="-4,4 -4,-616 2613.38,-616 2613.38,4 -4,4"/>
<!-- [root] aws_eip.nat1 (expand) -->
<g id="node1" class="node">
<title>[root] aws_eip.nat1 (expand)</title>
<polygon fill="none" stroke="black" points="87.25,-252 0,-252 0,-216 87.25,-216 87.25,-252"/>
<text text-anchor="middle" x="43.62" y="-228.95" font-family="Times,serif" font-size="14.00">aws_eip.nat1</text>
</g>
<!-- [root] aws_internet_gateway.main (expand) -->
<g id="node11" class="node">
<title>[root] aws_internet_gateway.main (expand)</title>
<polygon fill="none" stroke="black" points="474.38,-180 306.88,-180 306.88,-144 474.38,-144 474.38,-180"/>
<text text-anchor="middle" x="390.62" y="-156.95" font-family="Times,serif" font-size="14.00">aws_internet_gateway.main</text>
</g>
<!-- [root] aws_eip.nat1 (expand)&#45;&gt;[root] aws_internet_gateway.main (expand) -->
<g id="edge1" class="edge">
<title>[root] aws_eip.nat1 (expand)&#45;&gt;[root] aws_internet_gateway.main (expand)</title>
<path fill="none" stroke="black" d="M87.75,-218.37C90.74,-217.52 93.72,-216.72 96.62,-216 162.59,-199.55 238.09,-186.05 296.06,-176.79"/>
<polygon fill="black" stroke="black" points="296.35,-180.13 305.68,-175.11 295.26,-173.22 296.35,-180.13"/>
</g>
<!-- [root] aws_eip.nat2 (expand) -->
<g id="node2" class="node">
<title>[root] aws_eip.nat2 (expand)</title>
<polygon fill="none" stroke="black" points="501.25,-252 414,-252 414,-216 501.25,-216 501.25,-252"/>
<text text-anchor="middle" x="457.62" y="-228.95" font-family="Times,serif" font-size="14.00">aws_eip.nat2</text>
</g>
<!-- [root] aws_eip.nat2 (expand)&#45;&gt;[root] aws_internet_gateway.main (expand) -->
<g id="edge2" class="edge">
<title>[root] aws_eip.nat2 (expand)&#45;&gt;[root] aws_internet_gateway.main (expand)</title>
<path fill="none" stroke="black" d="M441.06,-215.7C433.03,-207.3 423.24,-197.07 414.42,-187.86"/>
<polygon fill="black" stroke="black" points="417.44,-185.91 408,-181.1 412.38,-190.75 417.44,-185.91"/>
</g>
<!-- [root] aws_eks_cluster.eks (expand) -->
<g id="node3" class="node">
<title>[root] aws_eks_cluster.eks (expand)</title>
<polygon fill="none" stroke="black" points="1067.38,-324 941.88,-324 941.88,-288 1067.38,-288 1067.38,-324"/>
<text text-anchor="middle" x="1004.62" y="-300.95" font-family="Times,serif" font-size="14.00">aws_eks_cluster.eks</text>
</g>
<!-- [root] aws_iam_role_policy_attachment.amazon_eks_cluster_policy (expand) -->
<g id="node8" class="node">
<title>[root] aws_iam_role_policy_attachment.amazon_eks_cluster_policy (expand)</title>
<polygon fill="none" stroke="black" points="1173.75,-252 819.5,-252 819.5,-216 1173.75,-216 1173.75,-252"/>
<text text-anchor="middle" x="996.62" y="-228.95" font-family="Times,serif" font-size="14.00">aws_iam_role_policy_attachment.amazon_eks_cluster_policy</text>
</g>
<!-- [root] aws_eks_cluster.eks (expand)&#45;&gt;[root] aws_iam_role_policy_attachment.amazon_eks_cluster_policy (expand) -->
<g id="edge3" class="edge">
<title>[root] aws_eks_cluster.eks (expand)&#45;&gt;[root] aws_iam_role_policy_attachment.amazon_eks_cluster_policy (expand)</title>
<path fill="none" stroke="black" d="M1002.65,-287.7C1001.79,-280.24 1000.78,-271.32 999.82,-262.97"/>
<polygon fill="black" stroke="black" points="1003.19,-262.64 998.58,-253.1 996.24,-263.44 1003.19,-262.64"/>
</g>
<!-- [root] aws_subnet.private_1 (expand) -->
<g id="node21" class="node">
<title>[root] aws_subnet.private_1 (expand)</title>
<polygon fill="none" stroke="black" points="653.5,-252 519.75,-252 519.75,-216 653.5,-216 653.5,-252"/>
<text text-anchor="middle" x="586.62" y="-228.95" font-family="Times,serif" font-size="14.00">aws_subnet.private_1</text>
</g>
<!-- [root] aws_eks_cluster.eks (expand)&#45;&gt;[root] aws_subnet.private_1 (expand) -->
<g id="edge4" class="edge">
<title>[root] aws_eks_cluster.eks (expand)&#45;&gt;[root] aws_subnet.private_1 (expand)</title>
<path fill="none" stroke="black" d="M941.48,-289.72C938.49,-289.11 935.53,-288.54 932.62,-288 816.94,-266.68 783.68,-272.85 664.35,-252.21"/>
<polygon fill="black" stroke="black" points="665.15,-248.62 654.7,-250.34 663.94,-255.52 665.15,-248.62"/>
</g>
<!-- [root] aws_subnet.private_2 (expand) -->
<g id="node22" class="node">
<title>[root] aws_subnet.private_2 (expand)</title>
<polygon fill="none" stroke="black" points="1325.5,-252 1191.75,-252 1191.75,-216 1325.5,-216 1325.5,-252"/>
<text text-anchor="middle" x="1258.62" y="-228.95" font-family="Times,serif" font-size="14.00">aws_subnet.private_2</text>
</g>
<!-- [root] aws_eks_cluster.eks (expand)&#45;&gt;[root] aws_subnet.private_2 (expand) -->
<g id="edge5" class="edge">
<title>[root] aws_eks_cluster.eks (expand)&#45;&gt;[root] aws_subnet.private_2 (expand)</title>
<path fill="none" stroke="black" d="M1067.74,-287.61C1103.33,-277.8 1147.97,-265.5 1185.13,-255.26"/>
<polygon fill="black" stroke="black" points="1185.69,-258.46 1194.4,-252.43 1183.83,-251.71 1185.69,-258.46"/>
</g>
<!-- [root] aws_subnet.public_1 (expand) -->
<g id="node23" class="node">
<title>[root] aws_subnet.public_1 (expand)</title>
<polygon fill="none" stroke="black" points="235.62,-252 105.62,-252 105.62,-216 235.62,-216 235.62,-252"/>
<text text-anchor="middle" x="170.62" y="-228.95" font-family="Times,serif" font-size="14.00">aws_subnet.public_1</text>
</g>
<!-- [root] aws_eks_cluster.eks (expand)&#45;&gt;[root] aws_subnet.public_1 (expand) -->
<g id="edge6" class="edge">
<title>[root] aws_eks_cluster.eks (expand)&#45;&gt;[root] aws_subnet.public_1 (expand)</title>
<path fill="none" stroke="black" d="M941.53,-289.43C938.53,-288.9 935.55,-288.42 932.62,-288 633.07,-245.15 549.81,-293.28 246.75,-252.14"/>
<polygon fill="black" stroke="black" points="247.27,-248.54 236.88,-250.64 246.31,-255.47 247.27,-248.54"/>
</g>
<!-- [root] aws_subnet.public_2 (expand) -->
<g id="node24" class="node">
<title>[root] aws_subnet.public_2 (expand)</title>
<polygon fill="none" stroke="black" points="801.62,-252 671.62,-252 671.62,-216 801.62,-216 801.62,-252"/>
<text text-anchor="middle" x="736.62" y="-228.95" font-family="Times,serif" font-size="14.00">aws_subnet.public_2</text>
</g>
<!-- [root] aws_eks_cluster.eks (expand)&#45;&gt;[root] aws_subnet.public_2 (expand) -->
<g id="edge7" class="edge">
<title>[root] aws_eks_cluster.eks (expand)&#45;&gt;[root] aws_subnet.public_2 (expand)</title>
<path fill="none" stroke="black" d="M941.45,-288.5C902.73,-278.39 852.94,-265.38 812.14,-254.72"/>
<polygon fill="black" stroke="black" points="813.26,-251.14 802.7,-252 811.49,-257.91 813.26,-251.14"/>
</g>
<!-- [root] aws_eks_node_group.nodes_general (expand) -->
<g id="node4" class="node">
<title>[root] aws_eks_node_group.nodes_general (expand)</title>
<polygon fill="none" stroke="black" points="1616,-396 1401.25,-396 1401.25,-360 1616,-360 1616,-396"/>
<text text-anchor="middle" x="1508.62" y="-372.95" font-family="Times,serif" font-size="14.00">aws_eks_node_group.nodes_general</text>
</g>
<!-- [root] aws_eks_node_group.nodes_general (expand)&#45;&gt;[root] aws_eks_cluster.eks (expand) -->
<g id="edge8" class="edge">
<title>[root] aws_eks_node_group.nodes_general (expand)&#45;&gt;[root] aws_eks_cluster.eks (expand)</title>
<path fill="none" stroke="black" d="M1400.81,-362.03C1303.72,-348.54 1163.57,-329.08 1078.61,-317.28"/>
<polygon fill="black" stroke="black" points="1079.15,-313.68 1068.76,-315.77 1078.18,-320.61 1079.15,-313.68"/>
</g>
<!-- [root] aws_iam_role_policy_attachment.amazon_ec2_container_registry_read_only (expand) -->
<g id="node7" class="node">
<title>[root] aws_iam_role_policy_attachment.amazon_ec2_container_registry_read_only (expand)</title>
<polygon fill="none" stroke="black" points="2609.38,-324 2171.88,-324 2171.88,-288 2609.38,-288 2609.38,-324"/>
<text text-anchor="middle" x="2390.62" y="-300.95" font-family="Times,serif" font-size="14.00">aws_iam_role_policy_attachment.amazon_ec2_container_registry_read_only</text>
</g>
<!-- [root] aws_eks_node_group.nodes_general (expand)&#45;&gt;[root] aws_iam_role_policy_attachment.amazon_ec2_container_registry_read_only (expand) -->
<g id="edge9" class="edge">
<title>[root] aws_eks_node_group.nodes_general (expand)&#45;&gt;[root] aws_iam_role_policy_attachment.amazon_ec2_container_registry_read_only (expand)</title>
<path fill="none" stroke="black" d="M1616.33,-368.45C1750.92,-357.77 1984.88,-339.2 2160.49,-325.26"/>
<polygon fill="black" stroke="black" points="2160.75,-328.68 2170.45,-324.4 2160.2,-321.7 2160.75,-328.68"/>
</g>
<!-- [root] aws_iam_role_policy_attachment.amazon_eks_cni_policy_general (expand) -->
<g id="node9" class="node">
<title>[root] aws_iam_role_policy_attachment.amazon_eks_cni_policy_general (expand)</title>
<polygon fill="none" stroke="black" points="1699.25,-324 1318,-324 1318,-288 1699.25,-288 1699.25,-324"/>
<text text-anchor="middle" x="1508.62" y="-300.95" font-family="Times,serif" font-size="14.00">aws_iam_role_policy_attachment.amazon_eks_cni_policy_general</text>
</g>
<!-- [root] aws_eks_node_group.nodes_general (expand)&#45;&gt;[root] aws_iam_role_policy_attachment.amazon_eks_cni_policy_general (expand) -->
<g id="edge10" class="edge">
<title>[root] aws_eks_node_group.nodes_general (expand)&#45;&gt;[root] aws_iam_role_policy_attachment.amazon_eks_cni_policy_general (expand)</title>
<path fill="none" stroke="black" d="M1508.62,-359.7C1508.62,-352.24 1508.62,-343.32 1508.62,-334.97"/>
<polygon fill="black" stroke="black" points="1512.13,-335.1 1508.62,-325.1 1505.13,-335.1 1512.13,-335.1"/>
</g>
<!-- [root] aws_iam_role_policy_attachment.amazon_eks_worker_node_policy_general (expand) -->
<g id="node10" class="node">
<title>[root] aws_iam_role_policy_attachment.amazon_eks_worker_node_policy_general (expand)</title>
<polygon fill="none" stroke="black" points="2153.62,-324 1717.62,-324 1717.62,-288 2153.62,-288 2153.62,-324"/>
<text text-anchor="middle" x="1935.62" y="-300.95" font-family="Times,serif" font-size="14.00">aws_iam_role_policy_attachment.amazon_eks_worker_node_policy_general</text>
</g>
<!-- [root] aws_eks_node_group.nodes_general (expand)&#45;&gt;[root] aws_iam_role_policy_attachment.amazon_eks_worker_node_policy_general (expand) -->
<g id="edge11" class="edge">
<title>[root] aws_eks_node_group.nodes_general (expand)&#45;&gt;[root] aws_iam_role_policy_attachment.amazon_eks_worker_node_policy_general (expand)</title>
<path fill="none" stroke="black" d="M1615.27,-359.52C1677.17,-349.37 1755.2,-336.58 1818.75,-326.16"/>
<polygon fill="black" stroke="black" points="1818.92,-329.51 1828.23,-324.44 1817.79,-322.61 1818.92,-329.51"/>
</g>
<!-- [root] aws_iam_role.eks_cluster (expand) -->
<g id="node5" class="node">
<title>[root] aws_iam_role.eks_cluster (expand)</title>
<polygon fill="none" stroke="black" points="1470.12,-108 1313.12,-108 1313.12,-72 1470.12,-72 1470.12,-108"/>
<text text-anchor="middle" x="1391.62" y="-84.95" font-family="Times,serif" font-size="14.00">aws_iam_role.eks_cluster</text>
</g>
<!-- [root] provider[&quot;registry.terraform.io/hashicorp/aws&quot;] -->
<g id="node26" class="node">
<title>[root] provider[&quot;registry.terraform.io/hashicorp/aws&quot;]</title>
<polygon fill="none" stroke="black" points="1391.62,-36 1127.19,-18 1391.62,0 1656.06,-18 1391.62,-36"/>
<text text-anchor="middle" x="1391.62" y="-12.95" font-family="Times,serif" font-size="14.00">provider[&quot;registry.terraform.io/hashicorp/aws&quot;]</text>
</g>
<!-- [root] aws_iam_role.eks_cluster (expand)&#45;&gt;[root] provider[&quot;registry.terraform.io/hashicorp/aws&quot;] -->
<g id="edge12" class="edge">
<title>[root] aws_iam_role.eks_cluster (expand)&#45;&gt;[root] provider[&quot;registry.terraform.io/hashicorp/aws&quot;]</title>
<path fill="none" stroke="black" d="M1391.62,-71.7C1391.62,-64.24 1391.62,-55.32 1391.62,-46.97"/>
<polygon fill="black" stroke="black" points="1395.13,-47.1 1391.62,-37.1 1388.13,-47.1 1395.13,-47.1"/>
</g>
<!-- [root] aws_iam_role.nodes_general (expand) -->
<g id="node6" class="node">
<title>[root] aws_iam_role.nodes_general (expand)</title>
<polygon fill="none" stroke="black" points="1789.75,-252 1615.5,-252 1615.5,-216 1789.75,-216 1789.75,-252"/>
<text text-anchor="middle" x="1702.62" y="-228.95" font-family="Times,serif" font-size="14.00">aws_iam_role.nodes_general</text>
</g>
<!-- [root] aws_iam_role.nodes_general (expand)&#45;&gt;[root] provider[&quot;registry.terraform.io/hashicorp/aws&quot;] -->
<g id="edge13" class="edge">
<title>[root] aws_iam_role.nodes_general (expand)&#45;&gt;[root] provider[&quot;registry.terraform.io/hashicorp/aws&quot;]</title>
<path fill="none" stroke="black" d="M1679.95,-215.67C1640.14,-185.45 1554.73,-121.61 1479.62,-72 1462.83,-60.91 1443.74,-49.3 1427.65,-39.78"/>
<polygon fill="black" stroke="black" points="1429.95,-36.48 1419.55,-34.44 1426.4,-42.52 1429.95,-36.48"/>
</g>
<!-- [root] aws_iam_role_policy_attachment.amazon_ec2_container_registry_read_only (expand)&#45;&gt;[root] aws_iam_role.nodes_general (expand) -->
<g id="edge14" class="edge">
<title>[root] aws_iam_role_policy_attachment.amazon_ec2_container_registry_read_only (expand)&#45;&gt;[root] aws_iam_role.nodes_general (expand)</title>
<path fill="none" stroke="black" d="M2218.79,-287.52C2086.86,-274.09 1909.42,-256.04 1800.69,-244.98"/>
<polygon fill="black" stroke="black" points="1801.36,-241.43 1791.06,-243.9 1800.65,-248.39 1801.36,-241.43"/>
</g>
<!-- [root] aws_iam_role_policy_attachment.amazon_eks_cluster_policy (expand)&#45;&gt;[root] aws_iam_role.eks_cluster (expand) -->
<g id="edge15" class="edge">
<title>[root] aws_iam_role_policy_attachment.amazon_eks_cluster_policy (expand)&#45;&gt;[root] aws_iam_role.eks_cluster (expand)</title>
<path fill="none" stroke="black" d="M1045.06,-215.59C1117.71,-189.47 1254.71,-140.22 1332.93,-112.1"/>
<polygon fill="black" stroke="black" points="1333.88,-115.12 1342.1,-108.44 1331.51,-108.53 1333.88,-115.12"/>
</g>
<!-- [root] aws_iam_role_policy_attachment.amazon_eks_cni_policy_general (expand)&#45;&gt;[root] aws_iam_role.nodes_general (expand) -->
<g id="edge16" class="edge">
<title>[root] aws_iam_role_policy_attachment.amazon_eks_cni_policy_general (expand)&#45;&gt;[root] aws_iam_role.nodes_general (expand)</title>
<path fill="none" stroke="black" d="M1557.08,-287.52C1583.57,-277.96 1616.56,-266.05 1644.44,-256"/>
<polygon fill="black" stroke="black" points="1645.23,-259.07 1653.45,-252.38 1642.86,-252.48 1645.23,-259.07"/>
</g>
<!-- [root] aws_iam_role_policy_attachment.amazon_eks_worker_node_policy_general (expand)&#45;&gt;[root] aws_iam_role.nodes_general (expand) -->
<g id="edge17" class="edge">
<title>[root] aws_iam_role_policy_attachment.amazon_eks_worker_node_policy_general (expand)&#45;&gt;[root] aws_iam_role.nodes_general (expand)</title>
<path fill="none" stroke="black" d="M1877.43,-287.52C1845.06,-277.79 1804.6,-265.64 1770.75,-255.47"/>
<polygon fill="black" stroke="black" points="1772.07,-251.91 1761.48,-252.38 1770.05,-258.61 1772.07,-251.91"/>
</g>
<!-- [root] aws_vpc.main (expand) -->
<g id="node25" class="node">
<title>[root] aws_vpc.main (expand)</title>
<polygon fill="none" stroke="black" points="784,-108 689.25,-108 689.25,-72 784,-72 784,-108"/>
<text text-anchor="middle" x="736.62" y="-84.95" font-family="Times,serif" font-size="14.00">aws_vpc.main</text>
</g>
<!-- [root] aws_internet_gateway.main (expand)&#45;&gt;[root] aws_vpc.main (expand) -->
<g id="edge18" class="edge">
<title>[root] aws_internet_gateway.main (expand)&#45;&gt;[root] aws_vpc.main (expand)</title>
<path fill="none" stroke="black" d="M474.82,-143.97C537.83,-131.22 622.41,-114.11 678.16,-102.83"/>
<polygon fill="black" stroke="black" points="678.81,-106.07 687.91,-100.65 677.42,-99.21 678.81,-106.07"/>
</g>
<!-- [root] aws_nat_gateway.gw1 (expand) -->
<g id="node12" class="node">
<title>[root] aws_nat_gateway.gw1 (expand)</title>
<polygon fill="none" stroke="black" points="194.75,-324 56.5,-324 56.5,-288 194.75,-288 194.75,-324"/>
<text text-anchor="middle" x="125.62" y="-300.95" font-family="Times,serif" font-size="14.00">aws_nat_gateway.gw1</text>
</g>
<!-- [root] aws_nat_gateway.gw1 (expand)&#45;&gt;[root] aws_eip.nat1 (expand) -->
<g id="edge19" class="edge">
<title>[root] aws_nat_gateway.gw1 (expand)&#45;&gt;[root] aws_eip.nat1 (expand)</title>
<path fill="none" stroke="black" d="M105.36,-287.7C95.3,-279.11 82.99,-268.61 72.02,-259.24"/>
<polygon fill="black" stroke="black" points="74.82,-256.18 64.95,-252.35 70.28,-261.5 74.82,-256.18"/>
</g>
<!-- [root] aws_nat_gateway.gw1 (expand)&#45;&gt;[root] aws_subnet.public_1 (expand) -->
<g id="edge20" class="edge">
<title>[root] aws_nat_gateway.gw1 (expand)&#45;&gt;[root] aws_subnet.public_1 (expand)</title>
<path fill="none" stroke="black" d="M136.75,-287.7C141.87,-279.73 148.06,-270.1 153.74,-261.26"/>
<polygon fill="black" stroke="black" points="157.17,-263.41 159.63,-253.1 151.28,-259.62 157.17,-263.41"/>
</g>
<!-- [root] aws_nat_gateway.gw2 (expand) -->
<g id="node13" class="node">
<title>[root] aws_nat_gateway.gw2 (expand)</title>
<polygon fill="none" stroke="black" points="923.75,-324 785.5,-324 785.5,-288 923.75,-288 923.75,-324"/>
<text text-anchor="middle" x="854.62" y="-300.95" font-family="Times,serif" font-size="14.00">aws_nat_gateway.gw2</text>
</g>
<!-- [root] aws_nat_gateway.gw2 (expand)&#45;&gt;[root] aws_eip.nat2 (expand) -->
<g id="edge21" class="edge">
<title>[root] aws_nat_gateway.gw2 (expand)&#45;&gt;[root] aws_eip.nat2 (expand)</title>
<path fill="none" stroke="black" d="M785.36,-289.6C782.41,-289.04 779.49,-288.51 776.62,-288 662.47,-267.87 628.87,-277.72 512.13,-252.11"/>
<polygon fill="black" stroke="black" points="513.23,-248.55 502.71,-249.78 511.71,-255.38 513.23,-248.55"/>
</g>
<!-- [root] aws_nat_gateway.gw2 (expand)&#45;&gt;[root] aws_subnet.public_2 (expand) -->
<g id="edge22" class="edge">
<title>[root] aws_nat_gateway.gw2 (expand)&#45;&gt;[root] aws_subnet.public_2 (expand)</title>
<path fill="none" stroke="black" d="M825.15,-287.52C809.97,-278.51 791.28,-267.42 774.99,-257.76"/>
<polygon fill="black" stroke="black" points="777.11,-254.35 766.72,-252.26 773.54,-260.37 777.11,-254.35"/>
</g>
<!-- [root] aws_route_table.private1 (expand) -->
<g id="node14" class="node">
<title>[root] aws_route_table.private1 (expand)</title>
<polygon fill="none" stroke="black" points="495.88,-396 343.38,-396 343.38,-360 495.88,-360 495.88,-396"/>
<text text-anchor="middle" x="419.62" y="-372.95" font-family="Times,serif" font-size="14.00">aws_route_table.private1</text>
</g>
<!-- [root] aws_route_table.private1 (expand)&#45;&gt;[root] aws_nat_gateway.gw1 (expand) -->
<g id="edge23" class="edge">
<title>[root] aws_route_table.private1 (expand)&#45;&gt;[root] aws_nat_gateway.gw1 (expand)</title>
<path fill="none" stroke="black" d="M346.19,-359.52C303.46,-349.34 249.54,-336.5 205.71,-326.07"/>
<polygon fill="black" stroke="black" points="206.63,-322.45 196.09,-323.54 205.01,-329.26 206.63,-322.45"/>
</g>
<!-- [root] aws_route_table.private2 (expand) -->
<g id="node15" class="node">
<title>[root] aws_route_table.private2 (expand)</title>
<polygon fill="none" stroke="black" points="930.88,-396 778.38,-396 778.38,-360 930.88,-360 930.88,-396"/>
<text text-anchor="middle" x="854.62" y="-372.95" font-family="Times,serif" font-size="14.00">aws_route_table.private2</text>
</g>
<!-- [root] aws_route_table.private2 (expand)&#45;&gt;[root] aws_nat_gateway.gw2 (expand) -->
<g id="edge24" class="edge">
<title>[root] aws_route_table.private2 (expand)&#45;&gt;[root] aws_nat_gateway.gw2 (expand)</title>
<path fill="none" stroke="black" d="M854.62,-359.7C854.62,-352.24 854.62,-343.32 854.62,-334.97"/>
<polygon fill="black" stroke="black" points="858.13,-335.1 854.62,-325.1 851.13,-335.1 858.13,-335.1"/>
</g>
<!-- [root] aws_route_table.public (expand) -->
<g id="node16" class="node">
<title>[root] aws_route_table.public (expand)</title>
<polygon fill="none" stroke="black" points="395.62,-252 253.62,-252 253.62,-216 395.62,-216 395.62,-252"/>
<text text-anchor="middle" x="324.62" y="-228.95" font-family="Times,serif" font-size="14.00">aws_route_table.public</text>
</g>
<!-- [root] aws_route_table.public (expand)&#45;&gt;[root] aws_internet_gateway.main (expand) -->
<g id="edge25" class="edge">
<title>[root] aws_route_table.public (expand)&#45;&gt;[root] aws_internet_gateway.main (expand)</title>
<path fill="none" stroke="black" d="M340.94,-215.7C348.85,-207.3 358.5,-197.07 367.18,-187.86"/>
<polygon fill="black" stroke="black" points="369.18,-190.78 373.5,-181.1 364.09,-185.98 369.18,-190.78"/>
</g>
<!-- [root] aws_route_table_association.private1 (expand) -->
<g id="node17" class="node">
<title>[root] aws_route_table_association.private1 (expand)</title>
<polygon fill="none" stroke="black" points="633.25,-468 414,-468 414,-432 633.25,-432 633.25,-468"/>
<text text-anchor="middle" x="523.62" y="-444.95" font-family="Times,serif" font-size="14.00">aws_route_table_association.private1</text>
</g>
<!-- [root] aws_route_table_association.private1 (expand)&#45;&gt;[root] aws_route_table.private1 (expand) -->
<g id="edge26" class="edge">
<title>[root] aws_route_table_association.private1 (expand)&#45;&gt;[root] aws_route_table.private1 (expand)</title>
<path fill="none" stroke="black" d="M497.65,-431.52C484.52,-422.68 468.41,-411.84 454.25,-402.3"/>
<polygon fill="black" stroke="black" points="456.52,-398.94 446.27,-396.26 452.61,-404.75 456.52,-398.94"/>
</g>
<!-- [root] aws_route_table_association.private1 (expand)&#45;&gt;[root] aws_subnet.private_1 (expand) -->
<g id="edge27" class="edge">
<title>[root] aws_route_table_association.private1 (expand)&#45;&gt;[root] aws_subnet.private_1 (expand)</title>
<path fill="none" stroke="black" d="M522.54,-431.73C521.29,-401.34 521.66,-336.89 542.62,-288 546.89,-278.05 553.65,-268.51 560.59,-260.33"/>
<polygon fill="black" stroke="black" points="562.7,-263.11 566.81,-253.34 557.51,-258.42 562.7,-263.11"/>
</g>
<!-- [root] aws_route_table_association.private2 (expand) -->
<g id="node18" class="node">
<title>[root] aws_route_table_association.private2 (expand)</title>
<polygon fill="none" stroke="black" points="964.25,-468 745,-468 745,-432 964.25,-432 964.25,-468"/>
<text text-anchor="middle" x="854.62" y="-444.95" font-family="Times,serif" font-size="14.00">aws_route_table_association.private2</text>
</g>
<!-- [root] aws_route_table_association.private2 (expand)&#45;&gt;[root] aws_route_table.private2 (expand) -->
<g id="edge28" class="edge">
<title>[root] aws_route_table_association.private2 (expand)&#45;&gt;[root] aws_route_table.private2 (expand)</title>
<path fill="none" stroke="black" d="M854.62,-431.7C854.62,-424.24 854.62,-415.32 854.62,-406.97"/>
<polygon fill="black" stroke="black" points="858.13,-407.1 854.62,-397.1 851.13,-407.1 858.13,-407.1"/>
</g>
<!-- [root] aws_route_table_association.private2 (expand)&#45;&gt;[root] aws_subnet.private_2 (expand) -->
<g id="edge29" class="edge">
<title>[root] aws_route_table_association.private2 (expand)&#45;&gt;[root] aws_subnet.private_2 (expand)</title>
<path fill="none" stroke="black" d="M887.34,-431.67C960.09,-393.14 1135.2,-300.38 1216.2,-257.47"/>
<polygon fill="black" stroke="black" points="1217.4,-260.27 1224.6,-252.49 1214.13,-254.08 1217.4,-260.27"/>
</g>
<!-- [root] aws_route_table_association.public1 (expand) -->
<g id="node19" class="node">
<title>[root] aws_route_table_association.public1 (expand)</title>
<polygon fill="none" stroke="black" points="428.38,-324 212.88,-324 212.88,-288 428.38,-288 428.38,-324"/>
<text text-anchor="middle" x="320.62" y="-300.95" font-family="Times,serif" font-size="14.00">aws_route_table_association.public1</text>
</g>
<!-- [root] aws_route_table_association.public1 (expand)&#45;&gt;[root] aws_route_table.public (expand) -->
<g id="edge30" class="edge">
<title>[root] aws_route_table_association.public1 (expand)&#45;&gt;[root] aws_route_table.public (expand)</title>
<path fill="none" stroke="black" d="M321.61,-287.7C322.04,-280.24 322.55,-271.32 323.03,-262.97"/>
<polygon fill="black" stroke="black" points="326.57,-263.29 323.65,-253.1 319.58,-262.89 326.57,-263.29"/>
</g>
<!-- [root] aws_route_table_association.public1 (expand)&#45;&gt;[root] aws_subnet.public_1 (expand) -->
<g id="edge31" class="edge">
<title>[root] aws_route_table_association.public1 (expand)&#45;&gt;[root] aws_subnet.public_1 (expand)</title>
<path fill="none" stroke="black" d="M283.16,-287.52C263.31,-278.25 238.73,-266.78 217.61,-256.93"/>
<polygon fill="black" stroke="black" points="219.41,-253.44 208.87,-252.38 216.45,-259.78 219.41,-253.44"/>
</g>
<!-- [root] aws_route_table_association.public2 (expand) -->
<g id="node20" class="node">
<title>[root] aws_route_table_association.public2 (expand)</title>
<polygon fill="none" stroke="black" points="767.38,-324 551.88,-324 551.88,-288 767.38,-288 767.38,-324"/>
<text text-anchor="middle" x="659.62" y="-300.95" font-family="Times,serif" font-size="14.00">aws_route_table_association.public2</text>
</g>
<!-- [root] aws_route_table_association.public2 (expand)&#45;&gt;[root] aws_route_table.public (expand) -->
<g id="edge32" class="edge">
<title>[root] aws_route_table_association.public2 (expand)&#45;&gt;[root] aws_route_table.public (expand)</title>
<path fill="none" stroke="black" d="M575.19,-287.55C528.13,-277.8 468.2,-265.35 406.11,-252.31"/>
<polygon fill="black" stroke="black" points="407.23,-248.76 396.72,-250.13 405.79,-255.61 407.23,-248.76"/>
</g>
<!-- [root] aws_route_table_association.public2 (expand)&#45;&gt;[root] aws_subnet.public_2 (expand) -->
<g id="edge33" class="edge">
<title>[root] aws_route_table_association.public2 (expand)&#45;&gt;[root] aws_subnet.public_2 (expand)</title>
<path fill="none" stroke="black" d="M678.66,-287.7C688.01,-279.2 699.43,-268.81 709.66,-259.51"/>
<polygon fill="black" stroke="black" points="711.5,-262.66 716.54,-253.35 706.79,-257.48 711.5,-262.66"/>
</g>
<!-- [root] aws_subnet.private_1 (expand)&#45;&gt;[root] aws_vpc.main (expand) -->
<g id="edge34" class="edge">
<title>[root] aws_subnet.private_1 (expand)&#45;&gt;[root] aws_vpc.main (expand)</title>
<path fill="none" stroke="black" d="M605.02,-215.59C631.48,-190.54 680.4,-144.22 710.57,-115.66"/>
<polygon fill="black" stroke="black" points="712.69,-118.53 717.55,-109.11 707.88,-113.44 712.69,-118.53"/>
</g>
<!-- [root] aws_subnet.private_2 (expand)&#45;&gt;[root] aws_vpc.main (expand) -->
<g id="edge35" class="edge">
<title>[root] aws_subnet.private_2 (expand)&#45;&gt;[root] aws_vpc.main (expand)</title>
<path fill="none" stroke="black" d="M1194.36,-215.52C1091.94,-187.66 893.27,-133.61 794.82,-106.83"/>
<polygon fill="black" stroke="black" points="796.03,-103.26 785.47,-104.01 794.2,-110.02 796.03,-103.26"/>
</g>
<!-- [root] aws_subnet.public_1 (expand)&#45;&gt;[root] aws_vpc.main (expand) -->
<g id="edge36" class="edge">
<title>[root] aws_subnet.public_1 (expand)&#45;&gt;[root] aws_vpc.main (expand)</title>
<path fill="none" stroke="black" d="M189.11,-215.53C212.41,-194.64 254.63,-160.46 297.62,-144 365.85,-117.88 575.26,-101.3 678.23,-94.52"/>
<polygon fill="black" stroke="black" points="678.29,-97.96 688.05,-93.81 677.84,-90.97 678.29,-97.96"/>
</g>
<!-- [root] aws_subnet.public_2 (expand)&#45;&gt;[root] aws_vpc.main (expand) -->
<g id="edge37" class="edge">
<title>[root] aws_subnet.public_2 (expand)&#45;&gt;[root] aws_vpc.main (expand)</title>
<path fill="none" stroke="black" d="M736.62,-215.59C736.62,-191.5 736.62,-147.75 736.62,-119.03"/>
<polygon fill="black" stroke="black" points="740.13,-119.11 736.62,-109.11 733.13,-119.11 740.13,-119.11"/>
</g>
<!-- [root] aws_vpc.main (expand)&#45;&gt;[root] provider[&quot;registry.terraform.io/hashicorp/aws&quot;] -->
<g id="edge38" class="edge">
<title>[root] aws_vpc.main (expand)&#45;&gt;[root] provider[&quot;registry.terraform.io/hashicorp/aws&quot;]</title>
<path fill="none" stroke="black" d="M784.26,-83.91C887.87,-72.84 1136.02,-46.32 1281.04,-30.82"/>
<polygon fill="black" stroke="black" points="1281.16,-34.22 1290.73,-29.68 1280.42,-27.26 1281.16,-34.22"/>
</g>
<!-- [root] output.vpc_id (expand) -->
<g id="node27" class="node">
<title>[root] output.vpc_id (expand)</title>
<ellipse fill="none" stroke="black" cx="1116.62" cy="-522" rx="120.96" ry="18"/>
<text text-anchor="middle" x="1116.62" y="-516.95" font-family="Times,serif" font-size="14.00">[root] output.vpc_id (expand)</text>
</g>
<!-- [root] output.vpc_id (expand)&#45;&gt;[root] aws_vpc.main (expand) -->
<g id="edge39" class="edge">
<title>[root] output.vpc_id (expand)&#45;&gt;[root] aws_vpc.main (expand)</title>
<path fill="none" stroke="black" d="M1130.73,-503.91C1178.58,-445.9 1331.91,-259.65 1334.62,-252 1339.97,-236.92 1344.63,-228.49 1334.62,-216 1267.4,-132.08 931.53,-102.68 794.74,-94.08"/>
<polygon fill="black" stroke="black" points="795.27,-90.55 785.07,-93.43 794.84,-97.53 795.27,-90.55"/>
</g>
<!-- [root] provider[&quot;registry.terraform.io/hashicorp/aws&quot;] (close) -->
<g id="node28" class="node">
<title>[root] provider[&quot;registry.terraform.io/hashicorp/aws&quot;] (close)</title>
<ellipse fill="none" stroke="black" cx="722.62" cy="-522" rx="238.16" ry="18"/>
<text text-anchor="middle" x="722.62" y="-516.95" font-family="Times,serif" font-size="14.00">[root] provider[&quot;registry.terraform.io/hashicorp/aws&quot;] (close)</text>
</g>
<!-- [root] provider[&quot;registry.terraform.io/hashicorp/aws&quot;] (close)&#45;&gt;[root] aws_eks_node_group.nodes_general (expand) -->
<g id="edge40" class="edge">
<title>[root] provider[&quot;registry.terraform.io/hashicorp/aws&quot;] (close)&#45;&gt;[root] aws_eks_node_group.nodes_general (expand)</title>
<path fill="none" stroke="black" d="M812.02,-504.85C957.55,-478.56 1245.1,-426.61 1401.39,-398.37"/>
<polygon fill="black" stroke="black" points="1401.74,-401.69 1410.95,-396.46 1400.49,-394.8 1401.74,-401.69"/>
</g>
<!-- [root] provider[&quot;registry.terraform.io/hashicorp/aws&quot;] (close)&#45;&gt;[root] aws_route_table_association.private1 (expand) -->
<g id="edge41" class="edge">
<title>[root] provider[&quot;registry.terraform.io/hashicorp/aws&quot;] (close)&#45;&gt;[root] aws_route_table_association.private1 (expand)</title>
<path fill="none" stroke="black" d="M674.2,-503.97C646.82,-494.34 612.37,-482.22 583.33,-472"/>
<polygon fill="black" stroke="black" points="584.9,-468.49 574.31,-468.48 582.58,-475.1 584.9,-468.49"/>
</g>
<!-- [root] provider[&quot;registry.terraform.io/hashicorp/aws&quot;] (close)&#45;&gt;[root] aws_route_table_association.private2 (expand) -->
<g id="edge42" class="edge">
<title>[root] provider[&quot;registry.terraform.io/hashicorp/aws&quot;] (close)&#45;&gt;[root] aws_route_table_association.private2 (expand)</title>
<path fill="none" stroke="black" d="M755.25,-503.7C772.47,-494.57 793.79,-483.26 812.27,-473.46"/>
<polygon fill="black" stroke="black" points="813.72,-476.12 820.91,-468.35 810.44,-469.94 813.72,-476.12"/>
</g>
<!-- [root] provider[&quot;registry.terraform.io/hashicorp/aws&quot;] (close)&#45;&gt;[root] aws_route_table_association.public1 (expand) -->
<g id="edge43" class="edge">
<title>[root] provider[&quot;registry.terraform.io/hashicorp/aws&quot;] (close)&#45;&gt;[root] aws_route_table_association.public1 (expand)</title>
<path fill="none" stroke="black" d="M586.59,-506.85C515.24,-497.76 436.24,-484.55 404.62,-468 365.09,-447.3 354.59,-435.92 334.62,-396 325.17,-377.09 321.8,-353.34 320.72,-335.13"/>
<polygon fill="black" stroke="black" points="324.18,-335.19 320.3,-325.33 317.19,-335.46 324.18,-335.19"/>
</g>
<!-- [root] provider[&quot;registry.terraform.io/hashicorp/aws&quot;] (close)&#45;&gt;[root] aws_route_table_association.public2 (expand) -->
<g id="edge44" class="edge">
<title>[root] provider[&quot;registry.terraform.io/hashicorp/aws&quot;] (close)&#45;&gt;[root] aws_route_table_association.public2 (expand)</title>
<path fill="none" stroke="black" d="M717.58,-503.85C706.7,-466.91 680.98,-379.55 667.77,-334.67"/>
<polygon fill="black" stroke="black" points="670.88,-333.84 664.7,-325.23 664.16,-335.81 670.88,-333.84"/>
</g>
<!-- [root] root -->
<g id="node29" class="node">
<title>[root] root</title>
<ellipse fill="none" stroke="black" cx="910.62" cy="-594" rx="49.3" ry="18"/>
<text text-anchor="middle" x="910.62" y="-588.95" font-family="Times,serif" font-size="14.00">[root] root</text>
</g>
<!-- [root] root&#45;&gt;[root] output.vpc_id (expand) -->
<g id="edge45" class="edge">
<title>[root] root&#45;&gt;[root] output.vpc_id (expand)</title>
<path fill="none" stroke="black" d="M945.57,-581.13C976.73,-570.54 1022.94,-554.83 1059.48,-542.42"/>
<polygon fill="black" stroke="black" points="1060.16,-545.54 1068.5,-539.01 1057.91,-538.92 1060.16,-545.54"/>
</g>
<!-- [root] root&#45;&gt;[root] provider[&quot;registry.terraform.io/hashicorp/aws&quot;] (close) -->
<g id="edge46" class="edge">
<title>[root] root&#45;&gt;[root] provider[&quot;registry.terraform.io/hashicorp/aws&quot;] (close)</title>
<path fill="none" stroke="black" d="M877.01,-580.49C849.76,-570.34 810.75,-555.81 778.77,-543.91"/>
<polygon fill="black" stroke="black" points="780.25,-540.35 769.66,-540.14 777.81,-546.91 780.25,-540.35"/>
</g>
</g>
</svg>
